DataType=double
version=3
OpenSimVersion=4.2
endheader
time	ground_force_r_vx	ground_force_r_vy	ground_force_r_vz	ground_force_r_px	ground_force_r_py	ground_force_r_pz	ground_force_l_vx	ground_force_l_vy	ground_force_l_vz	ground_force_l_px	ground_force_l_py	ground_force_l_pz	ground_torque_r_x	ground_torque_r_y	ground_torque_r_z	ground_torque_l_x	ground_torque_l_y	ground_torque_l_z
0.868	-639.8518156202686	65.93521444978855	0	0	0	0	0	0	0	0	0	0	0	0	-18.87209188059891	0	0	0
0.8684918559103683	-223.7846057366219	24.84389522504329	0	0	0	0	0	0	0	0	0	0	0	0	-6.583669125334134	0	0	0
0.8689837118207364	-235.9639224356242	25.80749269131453	0	0	0	0	0	0	0	0	0	0	0	0	-7.002269501980789	0	0	0
0.8694755677311047	-331.8548607885814	35.78055512439961	0	0	0	0	0	0	0	0	0	0	0	0	-9.866761271517575	0	0	0
0.8699674236414728	-313.4775948893305	34.13829809910519	0	0	0	0	0	0	0	0	0	0	0	0	-9.311448045298048	0	0	0
0.8704592795518411	-234.2517641666277	26.04966008797542	0	0	0	0	0	0	0	0	0	0	0	0	-6.964785799327684	0	0	0
0.8709511354622093	-163.6465866832013	18.49865967183081	0	0	0	0	0	0	0	0	0	0	0	0	-4.888524806383773	0	0	0
0.8714429913725775	-116.7040874846706	13.32306881999201	0	0	0	0	0	0	0	0	0	0	0	0	-3.512671339470165	0	0	0
0.8719348472829457	-82.49312187012099	9.507268555900566	0	0	0	0	0	0	0	0	0	0	0	0	-2.512079833019128	0	0	0
0.8724267031933139	-54.57304791274565	6.35931853242219	0	0	0	0	0	0	0	0	0	0	0	0	-1.700493705103475	0	0	0
0.8729185591036821	-39.84983642826963	4.680791057990473	0	0	0	0	0	0	0	0	0	0	0	0	-1.279885448080119	0	0	0
0.8734104150140504	-36.552655213966	4.306308407638599	0	0	0	0	0	0	0	0	0	0	0	0	-1.190530060671198	0	0	0
0.8739022709244185	-31.51829467553933	3.717371073375789	0	0	0	0	0	0	0	0	0	0	0	0	-1.03799773065849	0	0	0
0.8743941268347868	-27.93403729752412	3.301756585136449	0	0	0	0	0	0	0	0	0	0	0	0	-0.9274570988466588	0	0	0
0.8748859827451549	-34.01625314395043	4.029671360446679	0	0	0	0	0	0	0	0	0	0	0	0	-1.110006343269087	0	0	0
0.8753778386555232	-37.65822814187013	4.47416774550124	0	0	0	0	0	0	0	0	0	0	0	0	-1.220023971038951	0	0	0
0.8758696945658914	-26.44024977996436	3.158722414385275	0	0	0	0	0	0	0	0	0	0	0	0	-0.8830745553407502	0	0	0
0.8763615504762596	-20.56977476390756	2.47820959608777	0	0	0	0	0	0	0	0	0	0	0	0	-0.7275138326957759	0	0	0
0.8768534063866278	-40.85661146493447	4.972152313818321	0	0	0	0	0	0	0	0	0	0	0	0	-1.398346899623917	0	0	0
0.8773452622969961	-66.93793446497342	8.20707821536757	0	0	0	0	0	0	0	0	0	0	0	0	-2.255986736049064	0	0	0
0.8778371182073642	-76.10569521774129	9.366765052396842	0	0	0	0	0	0	0	0	0	0	0	0	-2.581311401306674	0	0	0
0.8783289741177325	-82.02165535337741	10.10694014486951	0	0	0	0	0	0	0	0	0	0	0	0	-2.794187004603423	0	0	0
0.8788208300281006	-96.26304798293286	11.88251277838842	0	0	0	0	0	0	0	0	0	0	0	0	-3.275247659887837	0	0	0
0.8793126859384689	-121.7922039842995	15.10174134679547	0	0	0	0	0	0	0	0	0	0	0	0	-4.146260630306054	0	0	0
0.8798045418488371	-162.9196520797246	20.33927901775251	0	0	0	0	0	0	0	0	0	0	0	0	-5.560370754657809	0	0	0
0.8802963977592053	-210.7578790108948	26.47731534163772	0	0	0	0	0	0	0	0	0	0	0	0	-7.222898514287382	0	0	0
0.8807882536695735	-254.4692101952837	32.1290142700063	0	0	0	0	0	0	0	0	0	0	0	0	-8.77156595371318	0	0	0
0.8812801095799417	-303.3254113967658	38.47244921570376	0	0	0	0	0	0	0	0	0	0	0	0	-10.50320327029274	0	0	0
0.8817719654903099	-369.1097217516028	47.10825634731605	0	0	0	0	0	0	0	0	0	0	0	0	-12.83318282510128	0	0	0
0.8822638214006782	-460.8335035111194	59.39017053160912	0	0	0	0	0	0	0	0	0	0	0	0	-16.11375974152129	0	0	0
0.8827556773110463	-591.6733683606994	77.31469707994461	0	0	0	0	0	0	0	0	0	0	0	0	-20.82939765989662	0	0	0
0.8832475332214146	-786.4673429669174	105.0134188103295	0	0	0	0	0	0	0	0	0	0	0	0	-27.95784391172223	0	0	0
0.8837393891317827	-1111.202751742039	153.6726928506963	0	0	0	0	0	0	0	0	0	0	0	0	-39.95183709055532	0	0	0
0.884231245042151	-1624.722153272078	235.4653796928442	0	0	0	0	0	0	0	0	0	0	0	0	-58.60017676458537	0	0	0
0.8847231009525192	-2357.477135150693	363.5675734460829	0	0	0	0	0	0	0	0	0	0	0	0	-84.39069523745459	0	0	0
0.8852149568628874	-3447.583865153006	573.8223293561007	0	0	0	0	0	0	0	0	0	0	0	0	-121.3635774910211	0	0	0
0.8857068127732556	-5398.932049882955	1007.180103226081	0	0	0	0	0	0	0	0	0	0	0	0	-185.3311116199519	0	0	0
0.8861986686836238	-8393.842191153086	2001.694636581471	0	0	0	0	0	0	0	0	0	0	0	0	-274.7067738629972	0	0	0
0.886690524593992	-9636.657260316795	3552.083529322233	0	0	0	0	0	0	0	0	0	0	0	0	-285.6393042341516	0	0	0
0.8871823805043603	-7070.561458191223	4402.59947734187	0	0	0	0	0	0	0	0	0	0	0	0	-172.2829320080898	0	0	0
0.8876742364147284	-4158.55959041435	4084.201215652101	0	0	0	0	0	0	0	0	0	0	0	0	-72.41448738156106	0	0	0
0.8881660923250967	-1220.704543345601	3318.384463379467	0	0	0	0	0	0	0	0	0	0	0	0	17.6869941851388	0	0	0
0.8886579482354648	-387.535668922312	2872.336078305249	0	0	0	0	0	0	0	0	0	0	0	0	38.6183165142229	0	0	0
0.8891498041458331	481.0423678872334	2960.406920845967	0	0	0	0	0	0	0	0	0	0	0	0	70.46854156451199	0	0	0
0.8896416600562013	562.0661066626653	3187.859961964789	0	0	0	0	0	0	0	0	0	0	0	0	76.97395342896645	0	0	0
0.8901335159665695	840.9358602181755	3486.507795478337	0	0	0	0	0	0	0	0	0	0	0	0	91.6208919577182	0	0	0
0.8906253718769377	897.7456467378294	3779.187450499569	0	0	0	0	0	0	0	0	0	0	0	0	98.18944039582695	0	0	0
0.891117227787306	2363.623730516323	4958.498406996728	0	0	0	0	0	0	0	0	0	0	0	0	169.7141908512932	0	0	0
0.8916090836976741	2963.112357774993	6825.581335573223	0	0	0	0	0	0	0	0	0	0	0	0	221.6254333390143	0	0	0
0.8921009396080424	-1551.45629779355	5148.304567919832	0	0	0	0	0	0	0	0	0	0	0	0	32.63656014358256	0	0	0
0.8925927955184105	0	0	0	0	0	0	0	0	0	0	0	0	0	0	0	0	0	0
0.8930846514287788	0	0	0	0	0	0	0	0	0	0	0	0	0	0	0	0	0	0
0.893576507339147	0	0	0	0	0	0	0	0	0	0	0	0	0	0	0	0	0	0
0.8940683632495152	0	0	0	0	0	0	0	0	0	0	0	0	0	0	0	0	0	0
0.8945602191598834	0	0	0	0	0	0	0	0	0	0	0	0	0	0	0	0	0	0
0.8950520750702516	0	0	0	0	0	0	0	0	0	0	0	0	0	0	0	0	0	0
0.8955439309806198	0	0	0	0	0	0	0	0	0	0	0	0	0	0	0	0	0	0
0.8960357868909881	0	0	0	0	0	0	0	0	0	0	0	0	0	0	0	0	0	0
0.8965276428013562	0	0	0	0	0	0	0	0	0	0	0	0	0	0	0	0	0	0
0.8970194987117245	0	0	0	0	0	0	0	0	0	0	0	0	0	0	0	0	0	0
0.8975113546220926	0	0	0	0	0	0	0	0	0	0	0	0	0	0	0	0	0	0
0.8980032105324609	0	0	0	0	0	0	0	0	0	0	0	0	0	0	0	0	0	0
0.8984950664428291	0	0	0	0	0	0	0	0	0	0	0	0	0	0	0	0	0	0
0.8989869223531973	0	0	0	0	0	0	0	0	0	0	0	0	0	0	0	0	0	0
